# xmcd
#
# Track frame offsets:
#	150
#	11801
#	23412
#	33518
#	44552
#	59162
#	70156
#	83773
#	99745
#	112061
#
# Disc length: 1679 seconds
#
# Revision: 0
# Processed by: cddbd v1.5.2PL0 Copyright (c) Steve Scherf et al.
# Submitted via: audiograbber 1.83.01
#
DISCID=87068d0a
DTITLE=Chet Atkins And Doc Watson - Reflections
DYEAR=1979
DGENRE=Country
TTITLE0=Dill Pickle Rag
TTITLE1=Me And Chet Made A Record
TTITLE2=Flatt Did It
TTITLE3=Medley: Tennessee Rag - Beaumont Rag
TTITLE4=Medley: Texas Gales - Old Joe Clark
TTITLE5=You're Gonna Be Sorry
TTITLE6=Goodnight Waltz
TTITLE7=Don't Monkey 'Round My Widder
TTITLE8=Medley: Black And White - Ragtime Annie
TTITLE9=On My Way To Canaan's Land
EXTD=Additions by TheMusicMaster
EXTT0=
EXTT1=
EXTT2=
EXTT3=
EXTT4=
EXTT5=
EXTT6=
EXTT7=
EXTT8=
EXTT9=
PLAYORDER=
